<svg width="35" height="36" viewBox="0 0 35 36" fill="none" xmlns="http://www.w3.org/2000/svg">
<path d="M32.2778 35.5L20.0278 23.25C19.0556 24.0278 17.9375 24.6435 16.6736 25.0972C15.4097 25.5509 14.0648 25.7778 12.6389 25.7778C9.10648 25.7778 6.11722 24.5541 3.67111 22.1067C1.225 19.6593 0.00129733 16.67 1.02881e-06 13.1389C-0.00129527 9.60778 1.22241 6.61852 3.67111 4.17111C6.11982 1.7237 9.10907 0.5 12.6389 0.5C16.1687 0.5 19.1586 1.7237 21.6086 4.17111C24.0586 6.61852 25.2817 9.60778 25.2778 13.1389C25.2778 14.5648 25.0509 15.9097 24.5972 17.1736C24.1435 18.4375 23.5278 19.5556 22.75 20.5278L35 32.7778L32.2778 35.5ZM12.6389 21.8889C15.0694 21.8889 17.1357 21.0385 18.8378 19.3378C20.5398 17.637 21.3902 15.5707 21.3889 13.1389C21.3876 10.707 20.5372 8.64139 18.8378 6.94194C17.1383 5.2425 15.072 4.39148 12.6389 4.38889C10.2057 4.3863 8.14009 5.23732 6.44195 6.94194C4.7438 8.64657 3.89278 10.7122 3.88889 13.1389C3.885 15.5656 4.73602 17.6319 6.44195 19.3378C8.14787 21.0437 10.2135 21.8941 12.6389 21.8889Z" fill="black"/>
</svg>
